<svg xmlns="http://www.w3.org/2000/svg" width="646.803" height="605.039" viewBox="0 0 646.803 605.039">

<path fill="#F0047F" d="M616.633 356.421h-24.128v16.457h24.128c12.495 0 13.657 10.548 13.714 13.714v23.988c0 12.466-10.503 13.649-13.765 13.714h-24.077v16.456h24.128c12.128 0 30.17-8.035 30.17-30.17v-23.988c0-12.128-8.038-30.171-30.17-30.171"/>
<path fill="#FE0009" d="M592.505 372.878h-16.456v67.872h16.456v-16.456z"/>
<path fill="#00A0C6" d="M430.429 223.153h-105.237v16.457h105.237c13.772 0 15.037 11.605 15.096 15.096v101.715h16.456v-101.715c-.001-12.683-8.405-31.553-31.552-31.553m-121.694 0h-277.183c-12.685 0-31.552 8.403-31.552 31.553v231.803c0 12.683 8.399 31.555 31.552 31.555h413.972v-145.186 128.729h-413.972c-13.772 0-15.04-11.605-15.096-15.099v-231.802c0-13.77 11.603-15.037 15.096-15.096h277.183v-16.457z"/>
<path fill="#A60000" d="M576.046 356.421h16.456v16.457h-16.456z"/>
	<g fill="#A6D514">
		<path d="M560.953 0h-220.666c-12.682 0-31.552 8.402-31.552 31.552v191.601h16.457v-191.601c0-13.77 11.603-15.04 15.095-15.096h220.666c13.77 0 15.034 11.605 15.096 15.096v324.869h16.456v-324.869c0-12.682-8.402-31.552-31.552-31.552zM461.98 356.421h114.068v16.457h-114.068zM325.192 341.324v-101.714h-16.457v101.714c0 12.681 8.405 31.554 31.552 31.554h105.237v-16.457h-105.237c-13.772 0-15.036-11.604-15.095-15.097z"/>
	</g>
	<g fill="#007A32">
		<path d="M308.735 223.153h16.457v16.457h-16.457zM445.524 356.421v161.642h16.456v-161.642z"/>
	</g>
<path fill="#FFFFFF" d="M82.186 430.706v-12.149h-49.626v12.149h18.224v47.751h13.178v-47.751h18.224zm42.528 47.751v-26.612c0-12.407-6.246-19.768-20.45-19.768-7.787 0-12.75 1.457-17.799 3.681l3.252 9.926c4.192-1.543 7.701-2.48 12.664-2.48 6.503 0 9.841 2.995 9.841 8.384v.771c-3.251-1.114-6.589-1.88-11.207-1.88-10.872 0-18.487 4.617-18.487 14.63v.171c0 9.069 7.103 14.035 15.744 14.035 6.335 0 10.698-2.314 13.864-5.823v4.966h12.578zm-12.32-16.172c0 4.703-4.109 8.04-10.184 8.04-4.192 0-7.103-2.051-7.103-5.561v-.171c0-4.108 3.423-6.332 8.989-6.332 3.163 0 6.075.681 8.298 1.709v2.315zm70.85-6.675v-.172c0-15.315-10.184-23.704-20.878-23.704-6.761 0-11.124 3.166-14.292 7.446v-23.19h-13.004v62.467h13.004v-5.988c3.083 3.675 7.363 6.846 14.292 6.846 10.866-.001 20.878-8.389 20.878-23.705m-13.006 0c0 7.703-5.135 12.664-11.209 12.664s-11.124-5.052-11.124-12.664v-.172c0-7.617 5.049-12.663 11.124-12.663s11.209 5.046 11.209 12.663v.172zm69.139 0v-.172c0-13.178-10.526-23.704-24.73-23.704-14.292 0-24.899 10.698-24.899 23.876v.171c0 13.179 10.523 23.699 24.728 23.699 14.289 0 24.901-10.692 24.901-23.87m-12.838.171c0 6.761-4.446 12.493-11.893 12.493-7.187 0-12.066-5.909-12.066-12.664v-.172c0-6.76 4.452-12.497 11.895-12.497 7.189 0 12.064 5.908 12.064 12.669v.171zm34.997-39.791h-13.007v62.462h13.007v-62.462zm58.786 39.62v-.172c0-13.178-10.526-23.704-24.73-23.704-14.29 0-24.902 10.698-24.902 23.876v.171c0 13.179 10.526 23.699 24.733 23.699 14.287 0 24.899-10.692 24.899-23.87m-12.838.171c0 6.761-4.449 12.493-11.892 12.493-7.189 0-12.066-5.909-12.066-12.664v-.172c0-6.76 4.452-12.497 11.897-12.497 7.184 0 12.061 5.908 12.061 12.669v.171zm67.514 12.322v-35.511h-13.007v5.989c-3.506-3.853-7.7-6.847-14.804-6.847-10.521 0-20.362 7.703-20.362 21.396v.166c0 13.606 9.667 21.396 20.362 21.396 6.932 0 11.126-2.823 14.978-7.446v2.229c0 8.213-4.194 12.492-13.095 12.492-6.074 0-10.781-1.542-15.489-4.194l-4.446 9.755c5.817 3.08 12.835 4.789 20.278 4.789 17.03-.002 25.585-6.927 25.585-24.214m-12.833-14.807c0 6.252-4.88 10.612-11.212 10.612s-11.123-4.28-11.123-10.612v-.166c0-6.252 4.791-10.612 11.123-10.612s11.212 4.36 11.212 10.612v.166zm67.254-20.704h-13.519l-10.012 31.23-10.44-31.23h-13.778l17.973 46.037c-1.114 2.309-2.312 2.994-4.535 2.994-1.711 0-3.852-.771-5.562-1.8l-4.363 9.418c3.334 1.966 6.843 3.16 11.549 3.16 7.787 0 11.553-3.503 15.062-12.835l17.625-46.974z"/><path fill="#FFE610" d="M461.98 518.063h-16.456v55.423c0 12.686 8.405 31.553 31.552 31.553h83.877c12.682 0 31.552-8.399 31.552-31.553v-132.736h-16.456v132.736c0 3.482-1.091 14.85-15.142 15.096h-83.831c-3.481 0-14.859-1.093-15.096-15.096v-55.423z"/></svg>